# xmcd CD database file
#
# Track frame offsets:
#	150
#	12460
#	24640
#	43930
#	57447
#	70772
#	84132
#	98680
#	110170
#	127534
#	138892
#	153367
#	169652
#	182395
#	194900
#	216493
#	230301
#	244186
#	259283
#	276871
#
# Disc length: 3916 seconds
#
# Revision: 2
# Processed by: cddbd v1.5.2PL0 Copyright (c) Steve Scherf et al.
# Submitted via: CDex 1.51
#
DISCID=190f4a14
DTITLE=Various Artist - Best of SA Country CD2
DYEAR=2006
DGENRE=Country
TTITLE0=Waiting For The Train - Charles Jacobie
TTITLE1=Broken Wings - Maureen Moore
TTITLE2=The Wedding - Jody Wayne
TTITLE3=Butterfly - Joanna Field
TTITLE4=Me and My Dog Malcolm - Matt Hurter
TTITLE5=Wasted Days and Wasted Nights - Gene Rockwell
TTITLE6=You Asked Me To - Bobby Angel
TTITLE7=I Don't Hurt Anymore - Tommy Del
TTITLE8=Our Sweet Precious Love - Billy Forest
TTITLE9=Turn Around - Ken J Larkin
TTITLE10=Baby Answer Me - Peter Vee
TTITLE11=One Day at A Time - Marie Gibson
TTITLE12=Wasn't That Love - Bobby Angel And Barbara Ray
TTITLE13=Silver Threads amongst the Gold - Ken Mullan
TTITLE14=Hey Mr Blue Bird - The Loaders
TTITLE15=My Best Friend - Lance James and Sally Vaughn
TTITLE16=Down the Mississipi - Barbara Ray
TTITLE17=Honky Tonk Angels - Gene Rockwell
TTITLE18=When the Gold Is In Your Hair - The Loaders
TTITLE19=Glory Glory Hallelujah - Sally Vaughn
EXTD=YEAR: 2006
EXTT0=
EXTT1=
EXTT2=
EXTT3=
EXTT4=
EXTT5=
EXTT6=
EXTT7=
EXTT8=
EXTT9=
EXTT10=
EXTT11=
EXTT12=
EXTT13=
EXTT14=
EXTT15=
EXTT16=
EXTT17=
EXTT18=
EXTT19=
PLAYORDER=
